<?xml version="1.0" standalone="no"?>
<!DOCTYPE svg PUBLIC "-//W3C//DTD SVG 20010904//EN"
 "http://www.w3.org/TR/2001/REC-SVG-20010904/DTD/svg10.dtd">
<svg version="1.0" xmlns="http://www.w3.org/2000/svg"
 width="1000.000000pt" height="1000.000000pt" viewBox="0 0 1000.000000 1000.000000"
 preserveAspectRatio="xMidYMid meet">
<metadata>
Created by potrace 1.14, written by Peter Selinger 2001-2017
</metadata>
<g transform="translate(0.000000,1000.000000) scale(0.100000,-0.100000)"
fill="#000000" stroke="none">
<path d="M0 4985 l0 -4985 1170 0 1170 0 2 2437 3 2436 673 -1261 672 -1261 0
-1175 0 -1176 3155 0 3155 0 0 3375 0 3375 -1165 0 -1165 0 0 -2205 0 -2205
-666 2 -665 3 -155 294 -154 294 0 3519 0 3518 -1170 0 -1170 0 -2 -1287 -3
-1288 -657 1250 c-361 688 -664 1267 -674 1288 l-18 37 -1168 0 -1168 0 0
-4985z m2040 0 l0 -4685 -870 0 -870 0 0 4685 0 4685 870 0 870 0 0 -4685z
m3690 1603 l-1 -3083 -29 55 c-15 30 -407 775 -869 1655 l-841 1600 0 1428 0
1427 870 0 870 0 0 -3082z m1940 -5418 l0 -870 -1840 0 -1840 0 0 870 0 870
1840 0 1840 0 0 -870z"/>
<path d="M7670 8700 l0 -1260 1165 0 1165 0 0 1260 0 1260 -1165 0 -1165 0 0
-1260z m2030 0 l0 -960 -865 0 -865 0 0 960 0 960 865 0 865 0 0 -960z"/>
</g>
</svg>
